<svg width="45" height="45" viewBox="0 0 45 45" fill="none" xmlns="http://www.w3.org/2000/svg">
<mask id="mask0_152_294" style="mask-type:luminance" maskUnits="userSpaceOnUse" x="0" y="0" width="45" height="45">
<path d="M45 22.5C45 10.0736 34.9264 0 22.5 0C10.0736 0 0 10.0736 0 22.5C0 34.9264 10.0736 45 22.5 45C34.9264 45 45 34.9264 45 22.5Z" fill="white"/>
</mask>
<g mask="url(#mask0_152_294)">
<path d="M45 0H0V45H45V0Z" fill="#EDD75A"/>
<path d="M-5.28278 2.83765C-11.7 14.9067 -7.1183 29.8928 4.95076 36.31C17.0198 42.7273 32.0059 38.1455 38.4231 26.0765C44.8404 14.0074 40.2587 -0.978653 28.1896 -7.39588C16.1205 -13.8131 1.13445 -9.23141 -5.28278 2.83765Z" fill="#160C8F"/>
<path d="M19.1348 18.0508C21.7711 18.8519 24.2512 18.4862 26.575 16.9537" stroke="white" stroke-width="2.22222" stroke-linecap="round"/>
<path d="M15.1857 12.2298C15.0981 11.5536 14.6046 11.0698 14.0834 11.1493C13.5622 11.2288 13.2107 11.8414 13.2982 12.5176C13.3858 13.1938 13.8794 13.6776 14.4006 13.5981C14.9218 13.5186 15.2733 12.906 15.1857 12.2298Z" fill="white"/>
<path d="M30.0402 10.1424C29.9526 9.46618 29.4591 8.98242 28.9379 9.0619C28.4167 9.14138 28.0651 9.75399 28.1527 10.4302C28.2403 11.1064 28.7339 11.5902 29.2551 11.5107C29.7763 11.4312 30.1278 10.8186 30.0402 10.1424Z" fill="white"/>
</g>
</svg>
