<svg width="45" height="45" viewBox="0 0 45 45" fill="none" xmlns="http://www.w3.org/2000/svg">
<mask id="mask0_284_223" style="mask-type:luminance" maskUnits="userSpaceOnUse" x="0" y="0" width="45" height="45">
<path d="M45 22.5C45 10.0736 34.9264 0 22.5 0C10.0736 0 0 10.0736 0 22.5C0 34.9264 10.0736 45 22.5 45C34.9264 45 45 34.9264 45 22.5Z" fill="white"/>
</mask>
<g mask="url(#mask0_284_223)">
<path d="M44.9998 0H-0.000244141V45H44.9998V0Z" fill="#EDD75A"/>
<path d="M-5.28351 2.83752C-11.7007 14.9066 -7.11903 29.8927 4.95002 36.3099C17.0191 42.7271 32.0052 38.1454 38.4224 26.0764C44.8396 14.0073 40.2579 -0.978775 28.1889 -7.39601C16.1198 -13.8132 1.13372 -9.23153 -5.28351 2.83752Z" fill="#160C8F"/>
<path d="M19.1343 18.0509C21.7707 18.852 24.2507 18.4863 26.5745 16.9538" stroke="white" stroke-width="2.22222" stroke-linecap="round"/>
<path d="M15.1852 12.2299C15.0977 11.5537 14.6041 11.0699 14.0829 11.1494C13.5617 11.2289 13.2102 11.8415 13.2978 12.5177C13.3854 13.194 13.8789 13.6777 14.4001 13.5982C14.9213 13.5188 15.2728 12.9061 15.1852 12.2299Z" fill="white"/>
<path d="M30.0393 10.1423C29.9517 9.46606 29.4581 8.9823 28.9369 9.06178C28.4157 9.14126 28.0642 9.75387 28.1518 10.4301C28.2394 11.1063 28.7329 11.5901 29.2541 11.5106C29.7753 11.4311 30.1268 10.8185 30.0393 10.1423Z" fill="white"/>
</g>
</svg>
