<svg width="45" height="45" viewBox="0 0 45 45" fill="none" xmlns="http://www.w3.org/2000/svg">
<mask id="mask0_79_261" style="mask-type:luminance" maskUnits="userSpaceOnUse" x="0" y="0" width="45" height="45">
<path d="M45 22.5C45 10.0736 34.9264 0 22.5 0C10.0736 0 0 10.0736 0 22.5C0 34.9264 10.0736 45 22.5 45C34.9264 45 45 34.9264 45 22.5Z" fill="white"/>
</mask>
<g mask="url(#mask0_79_261)">
<path d="M45 0H0V45H45V0Z" fill="#EDD75A"/>
<path d="M-5.28326 2.83765C-11.7005 14.9067 -7.11879 29.8928 4.95027 36.31C17.0193 42.7273 32.0054 38.1455 38.4226 26.0765C44.8399 14.0074 40.2582 -0.978653 28.1891 -7.39588C16.1201 -13.8131 1.13397 -9.23141 -5.28326 2.83765Z" fill="#0C8F8F"/>
<path d="M19.1343 18.0508C21.7707 18.8519 24.2507 18.4862 26.5745 16.9537" stroke="white" stroke-width="2.22222" stroke-linecap="round"/>
<path d="M15.1848 12.2298C15.0972 11.5536 14.6036 11.0698 14.0824 11.1493C13.5612 11.2288 13.2097 11.8414 13.2973 12.5176C13.3849 13.1938 13.8784 13.6776 14.3996 13.5981C14.9208 13.5186 15.2724 12.906 15.1848 12.2298Z" fill="white"/>
<path d="M30.0393 10.1424C29.9517 9.46618 29.4581 8.98242 28.9369 9.0619C28.4157 9.14138 28.0642 9.75399 28.1518 10.4302C28.2394 11.1064 28.7329 11.5902 29.2541 11.5107C29.7753 11.4312 30.1268 10.8186 30.0393 10.1424Z" fill="white"/>
</g>
</svg>
