<svg width="45" height="45" viewBox="0 0 45 45" fill="none" xmlns="http://www.w3.org/2000/svg">
<mask id="mask0_284_211" style="mask-type:luminance" maskUnits="userSpaceOnUse" x="0" y="0" width="45" height="45">
<path d="M45 22.5C45 10.0736 34.9264 0 22.5 0C10.0736 0 0 10.0736 0 22.5C0 34.9264 10.0736 45 22.5 45C34.9264 45 45 34.9264 45 22.5Z" fill="white"/>
</mask>
<g mask="url(#mask0_284_211)">
<path d="M45 0H0V45H45V0Z" fill="#1B84C0"/>
<path d="M50.8757 5.98529L14.9634 8.49652C10.005 8.84325 6.26643 13.144 6.61316 18.1024L9.12439 54.0147C9.47112 58.9732 13.7718 62.7117 18.7303 62.365L54.6426 59.8538C59.601 59.507 63.3396 55.2063 62.9929 50.2479L60.4816 14.3356C60.1349 9.3771 55.8342 5.63856 50.8757 5.98529Z" fill="#EE5959"/>
<path d="M20.9895 26.826C20.8338 28.0002 21.3341 29.2074 22.3806 30.1821C23.427 31.1569 24.9338 31.8193 26.5694 32.0237C28.205 32.2282 29.8356 31.9578 31.1022 31.2721C32.3689 30.5864 33.168 29.5416 33.3238 28.3675" fill="black"/>
<path d="M23.5132 19.5874C23.6007 18.9142 23.2665 18.3138 22.7668 18.2463C22.2671 18.1788 21.7912 18.6697 21.7038 19.3429C21.6163 20.0161 21.9505 20.6166 22.4502 20.6841C22.9499 20.7516 23.4258 20.2606 23.5132 19.5874Z" fill="black"/>
<path d="M33.4585 20.6327C33.546 19.9595 33.2118 19.3591 32.7121 19.2916C32.2124 19.224 31.7365 19.715 31.6491 20.3882C31.5617 21.0614 31.8959 21.6618 32.3955 21.7294C32.8952 21.7969 33.3711 21.3059 33.4585 20.6327Z" fill="black"/>
</g>
</svg>
