<svg width="45" height="45" viewBox="0 0 45 45" fill="none" xmlns="http://www.w3.org/2000/svg">
<mask id="mask0_152_319" style="mask-type:luminance" maskUnits="userSpaceOnUse" x="0" y="0" width="45" height="45">
<path d="M45 22.5C45 10.0736 34.9264 0 22.5 0C10.0736 0 0 10.0736 0 22.5C0 34.9264 10.0736 45 22.5 45C34.9264 45 45 34.9264 45 22.5Z" fill="white"/>
</mask>
<g mask="url(#mask0_152_319)">
<path d="M45 0H0V45H45V0Z" fill="#1B84C0"/>
<path d="M50.8757 5.98523L14.9634 8.49646C10.005 8.84319 6.26643 13.1439 6.61316 18.1023L9.12439 54.0147C9.47112 58.9731 13.7718 62.7117 18.7303 62.3649L54.6426 59.8537C59.601 59.507 63.3396 55.2063 62.9929 50.2478L60.4816 14.3355C60.1349 9.37704 55.8342 5.6385 50.8757 5.98523Z" fill="#EE5959"/>
<path d="M20.9893 26.8262C20.8335 28.0003 21.3339 29.2075 22.3803 30.1822C23.4268 31.157 24.9336 31.8194 26.5692 32.0239C28.2048 32.2283 29.8353 31.9579 31.102 31.2722C32.3687 30.5866 33.1678 29.5417 33.3235 28.3676" fill="black"/>
<path d="M23.5135 19.5874C23.6009 18.9142 23.2667 18.3138 22.767 18.2463C22.2674 18.1788 21.7914 18.6697 21.704 19.3429C21.6166 20.0161 21.9508 20.6166 22.4505 20.6841C22.9501 20.7516 23.4261 20.2606 23.5135 19.5874Z" fill="black"/>
<path d="M33.4588 20.6328C33.5462 19.9597 33.212 19.3592 32.7124 19.2917C32.2127 19.2242 31.7367 19.7152 31.6493 20.3883C31.5619 21.0615 31.8961 21.662 32.3958 21.7295C32.8954 21.797 33.3714 21.306 33.4588 20.6328Z" fill="black"/>
</g>
</svg>
