<svg width="45" height="45" viewBox="0 0 45 45" fill="none" xmlns="http://www.w3.org/2000/svg">
<g clip-path="url(#clip0_249_111)">
<mask id="mask0_249_111" style="mask-type:luminance" maskUnits="userSpaceOnUse" x="0" y="0" width="45" height="45">
<path d="M45 22.5C45 10.0736 34.9264 0 22.5 0C10.0736 0 0 10.0736 0 22.5C0 34.9264 10.0736 45 22.5 45C34.9264 45 45 34.9264 45 22.5Z" fill="white"/>
</mask>
<g mask="url(#mask0_249_111)">
<path d="M44.9998 0H-0.000244141V45H44.9998V0Z" fill="#0C8F8F"/>
<path d="M5.12766 46.4023L37.6263 52.1327C42.1134 52.9239 46.3924 49.9278 47.1836 45.4406L52.914 12.942C53.7052 8.45486 50.709 4.17593 46.2219 3.38472L13.7232 -2.34567C9.23611 -3.13687 4.95718 -0.140729 4.16598 4.3464L-1.56441 36.8451C-2.35561 41.3322 0.640528 45.6111 5.12766 46.4023Z" fill="#FFAD08"/>
<path d="M26.2498 17.5C28.7498 18.75 31.2498 18.75 33.7498 17.5" stroke="black" stroke-width="2.22222" stroke-linecap="round"/>
<path d="M26.8748 11.25C26.8748 10.5596 26.455 10 25.9373 10C25.4195 10 24.9998 10.5596 24.9998 11.25C24.9998 11.9404 25.4195 12.5 25.9373 12.5C26.455 12.5 26.8748 11.9404 26.8748 11.25Z" fill="black"/>
<path d="M34.3748 11.25C34.3748 10.5596 33.955 10 33.4373 10C32.9195 10 32.4998 10.5596 32.4998 11.25C32.4998 11.9404 32.9195 12.5 33.4373 12.5C33.955 12.5 34.3748 11.9404 34.3748 11.25Z" fill="black"/>
</g>
</g>
<defs>
<clipPath id="clip0_249_111">
<rect width="45" height="45" fill="white"/>
</clipPath>
</defs>
</svg>
