<svg width="35" height="35" viewBox="0 0 35 35" fill="none" xmlns="http://www.w3.org/2000/svg">
<path d="M12.7114 35L12.0149 29.4C11.6376 29.2542 11.2818 29.0792 10.9475 28.875C10.6132 28.6708 10.287 28.4521 9.96891 28.2188L4.78856 30.4062L0 22.0938L4.48383 18.6812C4.45481 18.4771 4.4403 18.2799 4.4403 18.0898V16.9102C4.4403 16.7201 4.45481 16.5229 4.48383 16.3188L0 12.9062L4.78856 4.59375L9.96891 6.78125C10.2881 6.54792 10.6219 6.32917 10.9701 6.125C11.3184 5.92083 11.6667 5.74583 12.0149 5.6L12.7114 0H22.2886L22.9851 5.6C23.3624 5.74583 23.7182 5.92083 24.0525 6.125C24.3868 6.32917 24.713 6.54792 25.0311 6.78125L30.2114 4.59375L35 12.9062L30.5162 16.3188C30.5452 16.5229 30.5597 16.7201 30.5597 16.9102V18.0898C30.5597 18.2799 30.5307 18.4771 30.4726 18.6812L34.9565 22.0938L30.1679 30.4062L25.0311 28.2188C24.7119 28.4521 24.3781 28.6708 24.0299 28.875C23.6816 29.0792 23.3333 29.2542 22.9851 29.4L22.2886 35H12.7114ZM17.5871 23.625C19.2703 23.625 20.7069 23.0271 21.8968 21.8313C23.0867 20.6354 23.6816 19.1917 23.6816 17.5C23.6816 15.8083 23.0867 14.3646 21.8968 13.1687C20.7069 11.9729 19.2703 11.375 17.5871 11.375C15.8748 11.375 14.4307 11.9729 13.2547 13.1687C12.0788 14.3646 11.4914 15.8083 11.4925 17.5C11.4925 19.1917 12.0799 20.6354 13.2547 21.8313C14.4295 23.0271 15.8736 23.625 17.5871 23.625Z" fill="white"/>
</svg>
